STARTFONT 2.1
COMMENT  
COMMENT  WARNING:  This bdf file was generated from an X server using
COMMENT  xbdfdump.  The resulting font is subject to the same copyright,
COMMENT  license, and trademark restrictions as the original font.  The
COMMENT  author and distributors of xbdfdump disclaim all liability for
COMMENT  misuse of the program or its output.
COMMENT  
FONT -phaisarn-angsana-medium-i-normal--10-100-75-75-p-75-tis620-0
SIZE 10 75 75
FONTBOUNDINGBOX 23 26 -7 -8
STARTPROPERTIES 26
FOUNDRY "Phaisarn"
FAMILY_NAME "Angsana"
WEIGHT_NAME "medium"
SLANT "i"
SETWIDTH_NAME "normal"
ADD_STYLE_NAME ""
PIXEL_SIZE 10
POINT_SIZE 100
RESOLUTION_X 75
RESOLUTION_Y 75
SPACING "p"
AVERAGE_WIDTH 75
CHARSET_REGISTRY "tis620"
CHARSET_ENCODING "0"
COPYRIGHT "Angsana by Pt-TITech 1997"
RAW_PIXELSIZE 1000
RAW_POINTSIZE "N"
RAW_ASCENT "CIRCUMFLEX_ACCENT"
RAW_DESCENT "RAW_FIGURE_WIDTH"
RAW_AVERAGE_WIDTH 2994
FACE_NAME "Angsana Inclined"
WEIGHT 10
X_HEIGHT 6
QUAD_WIDTH 8
FONT_ASCENT 15
FONT_DESCENT 10
ENDPROPERTIES
CHARS 199
STARTCHAR space
ENCODING 32
SWIDTH 288 0
DWIDTH 3 0
BBX 0 0 0 0
BITMAP
ENDCHAR
STARTCHAR exclam
ENCODING 33
SWIDTH 384 0
DWIDTH 4 0
BBX 3 9 1 0
BITMAP
20
20
20
20
40
40
40
00
c0
ENDCHAR
STARTCHAR quotedbl
ENCODING 34
SWIDTH 480 0
DWIDTH 5 0
BBX 3 4 2 5
BITMAP
a0
a0
a0
a0
ENDCHAR
STARTCHAR numbersign
ENCODING 35
SWIDTH 576 0
DWIDTH 6 0
BBX 5 9 1 0
BITMAP
28
28
50
f8
50
f8
50
a0
a0
ENDCHAR
STARTCHAR dollar
ENCODING 36
SWIDTH 576 0
DWIDTH 6 0
BBX 6 9 1 0
BITMAP
18
2c
54
70
30
28
a8
d0
60
ENDCHAR
STARTCHAR percent
ENCODING 37
SWIDTH 1056 0
DWIDTH 11 0
BBX 10 9 1 0
BITMAP
3040
4880
8900
9600
6d80
1a40
3440
4480
8300
ENDCHAR
STARTCHAR ampersand
ENCODING 38
SWIDTH 960 0
DWIDTH 10 0
BBX 8 9 1 0
BITMAP
08
1c
14
18
37
52
8e
88
77
ENDCHAR
STARTCHAR apostrophe
ENCODING 39
SWIDTH 288 0
DWIDTH 3 0
BBX 1 4 2 5
BITMAP
80
80
80
80
ENDCHAR
STARTCHAR parenleft
ENCODING 40
SWIDTH 384 0
DWIDTH 4 0
BBX 5 12 1 -3
BITMAP
18
10
20
40
40
c0
80
80
80
80
40
40
ENDCHAR
STARTCHAR parenright
ENCODING 41
SWIDTH 384 0
DWIDTH 4 0
BBX 4 12 -1 -3
BITMAP
20
10
10
10
10
10
30
20
20
40
40
80
ENDCHAR
STARTCHAR asterisk
ENCODING 42
SWIDTH 576 0
DWIDTH 6 0
BBX 5 5 2 4
BITMAP
20
a8
70
a8
20
ENDCHAR
STARTCHAR plus
ENCODING 43
SWIDTH 864 0
DWIDTH 9 0
BBX 6 8 2 0
BITMAP
00
10
20
f8
20
40
00
00
ENDCHAR
STARTCHAR comma
ENCODING 44
SWIDTH 288 0
DWIDTH 3 0
BBX 2 3 0 -2
BITMAP
c0
40
80
ENDCHAR
STARTCHAR minus
ENCODING 45
SWIDTH 384 0
DWIDTH 4 0
BBX 3 1 1 2
BITMAP
e0
ENDCHAR
STARTCHAR period
ENCODING 46
SWIDTH 288 0
DWIDTH 3 0
BBX 1 1 1 0
BITMAP
80
ENDCHAR
STARTCHAR slash
ENCODING 47
SWIDTH 384 0
DWIDTH 4 0
BBX 5 9 0 0
BITMAP
08
08
10
10
20
20
40
40
80
ENDCHAR
STARTCHAR 0
ENCODING 48
SWIDTH 576 0
DWIDTH 6 0
BBX 5 9 1 0
BITMAP
30
48
48
48
88
90
90
90
60
ENDCHAR
STARTCHAR 1
ENCODING 49
SWIDTH 576 0
DWIDTH 6 0
BBX 4 9 1 0
BITMAP
30
10
10
20
20
20
40
40
e0
ENDCHAR
STARTCHAR 2
ENCODING 50
SWIDTH 576 0
DWIDTH 6 0
BBX 5 9 1 0
BITMAP
30
48
08
08
10
30
60
48
f0
ENDCHAR
STARTCHAR 3
ENCODING 51
SWIDTH 576 0
DWIDTH 6 0
BBX 5 9 1 0
BITMAP
30
48
08
30
60
10
08
10
e0
ENDCHAR
STARTCHAR 4
ENCODING 52
SWIDTH 576 0
DWIDTH 6 0
BBX 5 9 1 0
BITMAP
08
18
18
28
50
90
f8
20
20
ENDCHAR
STARTCHAR 5
ENCODING 53
SWIDTH 576 0
DWIDTH 6 0
BBX 5 9 1 0
BITMAP
38
40
40
30
08
08
08
90
60
ENDCHAR
STARTCHAR 6
ENCODING 54
SWIDTH 576 0
DWIDTH 6 0
BBX 6 9 1 0
BITMAP
0c
30
20
70
48
88
88
50
60
ENDCHAR
STARTCHAR 7
ENCODING 55
SWIDTH 576 0
DWIDTH 6 0
BBX 5 9 2 0
BITMAP
f8
88
10
10
20
20
40
80
80
ENDCHAR
STARTCHAR 8
ENCODING 56
SWIDTH 576 0
DWIDTH 6 0
BBX 6 9 0 0
BITMAP
18
24
24
18
30
48
84
48
30
ENDCHAR
STARTCHAR 9
ENCODING 57
SWIDTH 576 0
DWIDTH 6 0
BBX 5 9 1 0
BITMAP
30
48
88
88
90
70
20
60
80
ENDCHAR
STARTCHAR colon
ENCODING 58
SWIDTH 384 0
DWIDTH 4 0
BBX 2 6 1 0
BITMAP
40
00
00
00
00
80
ENDCHAR
STARTCHAR semicolon
ENCODING 59
SWIDTH 384 0
DWIDTH 4 0
BBX 2 8 1 -2
BITMAP
40
00
00
00
00
80
80
80
ENDCHAR
STARTCHAR less
ENCODING 60
SWIDTH 864 0
DWIDTH 9 0
BBX 6 6 1 1
BITMAP
04
38
c0
c0
38
04
ENDCHAR
STARTCHAR equal
ENCODING 61
SWIDTH 864 0
DWIDTH 9 0
BBX 6 3 2 3
BITMAP
fc
00
fc
ENDCHAR
STARTCHAR greater
ENCODING 62
SWIDTH 864 0
DWIDTH 9 0
BBX 6 6 1 1
BITMAP
80
70
0c
0c
70
80
ENDCHAR
STARTCHAR question
ENCODING 63
SWIDTH 576 0
DWIDTH 6 0
BBX 5 9 1 0
BITMAP
30
48
48
18
20
40
40
00
80
ENDCHAR
STARTCHAR at
ENCODING 64
SWIDTH 1152 0
DWIDTH 12 0
BBX 11 12 1 -3
BITMAP
0e00
3180
20c0
4540
4b40
9240
a240
ae80
5360
4040
2180
1e00
ENDCHAR
STARTCHAR A
ENCODING 65
SWIDTH 768 0
DWIDTH 8 0
BBX 7 9 0 0
BITMAP
02
06
0c
0c
14
3c
24
44
ce
ENDCHAR
STARTCHAR B
ENCODING 66
SWIDTH 768 0
DWIDTH 8 0
BBX 8 9 0 0
BITMAP
3e
11
11
12
3c
22
62
44
f8
ENDCHAR
STARTCHAR C
ENCODING 67
SWIDTH 864 0
DWIDTH 9 0
BBX 9 9 1 0
BITMAP
0e80
3100
4100
c000
8000
8000
8000
4600
3800
ENDCHAR
STARTCHAR D
ENCODING 68
SWIDTH 864 0
DWIDTH 9 0
BBX 9 9 0 0
BITMAP
3e00
1100
1080
2080
2080
2080
4100
4600
f800
ENDCHAR
STARTCHAR E
ENCODING 69
SWIDTH 768 0
DWIDTH 8 0
BBX 9 9 0 0
BITMAP
3f00
1080
1000
2400
3c00
2400
6100
4200
fe00
ENDCHAR
STARTCHAR F
ENCODING 70
SWIDTH 768 0
DWIDTH 8 0
BBX 9 9 0 0
BITMAP
3f00
1080
3000
2400
3c00
2400
4000
4000
e000
ENDCHAR
STARTCHAR G
ENCODING 71
SWIDTH 864 0
DWIDTH 9 0
BBX 9 9 1 0
BITMAP
0e80
3100
4100
8000
8700
8200
8200
4400
3800
ENDCHAR
STARTCHAR H
ENCODING 72
SWIDTH 864 0
DWIDTH 9 0
BBX 10 9 0 0
BITMAP
39c0
1080
1080
2100
3f00
2100
4200
4200
e700
ENDCHAR
STARTCHAR I
ENCODING 73
SWIDTH 384 0
DWIDTH 4 0
BBX 5 9 0 0
BITMAP
38
10
10
20
20
20
40
40
e0
ENDCHAR
STARTCHAR J
ENCODING 74
SWIDTH 576 0
DWIDTH 6 0
BBX 7 9 0 0
BITMAP
0e
04
0c
08
08
18
10
a0
40
ENDCHAR
STARTCHAR K
ENCODING 75
SWIDTH 864 0
DWIDTH 9 0
BBX 9 9 0 0
BITMAP
3980
1100
1600
2800
3000
2800
4400
4600
ef00
ENDCHAR
STARTCHAR L
ENCODING 76
SWIDTH 672 0
DWIDTH 7 0
BBX 7 9 0 0
BITMAP
38
10
30
20
20
20
42
44
fc
ENDCHAR
STARTCHAR M
ENCODING 77
SWIDTH 1056 0
DWIDTH 11 0
BBX 12 9 0 0
BITMAP
3030
1060
18e0
28c0
2940
2ac0
4c80
4c80
ebc0
ENDCHAR
STARTCHAR N
ENCODING 78
SWIDTH 864 0
DWIDTH 9 0
BBX 10 9 0 0
BITMAP
31c0
1880
1880
2880
2d00
2500
4700
4200
e200
ENDCHAR
STARTCHAR O
ENCODING 79
SWIDTH 864 0
DWIDTH 9 0
BBX 8 9 1 0
BITMAP
0c
32
41
41
81
82
82
4c
30
ENDCHAR
STARTCHAR P
ENCODING 80
SWIDTH 768 0
DWIDTH 8 0
BBX 8 9 0 0
BITMAP
3e
11
11
22
3c
20
60
40
e0
ENDCHAR
STARTCHAR Q
ENCODING 81
SWIDTH 864 0
DWIDTH 9 0
BBX 8 12 1 -3
BITMAP
0c
12
61
41
c1
81
82
86
4c
30
41
fe
ENDCHAR
STARTCHAR R
ENCODING 82
SWIDTH 768 0
DWIDTH 8 0
BBX 7 9 0 0
BITMAP
3c
12
22
26
38
28
4c
44
e6
ENDCHAR
STARTCHAR S
ENCODING 83
SWIDTH 576 0
DWIDTH 6 0
BBX 7 9 0 0
BITMAP
1e
22
22
30
18
0c
44
84
b0
ENDCHAR
STARTCHAR T
ENCODING 84
SWIDTH 672 0
DWIDTH 7 0
BBX 8 9 1 0
BITMAP
7e
93
10
30
20
20
60
40
f0
ENDCHAR
STARTCHAR U
ENCODING 85
SWIDTH 864 0
DWIDTH 9 0
BBX 9 9 1 0
BITMAP
f380
6100
4100
4100
8100
8200
8200
4c00
7000
ENDCHAR
STARTCHAR V
ENCODING 86
SWIDTH 768 0
DWIDTH 8 0
BBX 7 9 2 0
BITMAP
e6
44
44
48
d0
a0
a0
c0
80
ENDCHAR
STARTCHAR W
ENCODING 87
SWIDTH 1056 0
DWIDTH 11 0
BBX 10 9 2 0
BITMAP
fec0
4c80
4c80
d900
9b00
aa00
cc00
8800
8800
ENDCHAR
STARTCHAR X
ENCODING 88
SWIDTH 768 0
DWIDTH 8 0
BBX 10 9 -1 0
BITMAP
1dc0
1880
0900
0a00
0c00
1c00
2400
4200
e700
ENDCHAR
STARTCHAR Y
ENCODING 89
SWIDTH 672 0
DWIDTH 7 0
BBX 7 9 2 0
BITMAP
e6
44
4c
28
30
20
60
40
e0
ENDCHAR
STARTCHAR Z
ENCODING 90
SWIDTH 672 0
DWIDTH 7 0
BBX 7 9 0 0
BITMAP
7e
46
04
08
10
20
42
c4
fc
ENDCHAR
STARTCHAR bracketleft
ENCODING 91
SWIDTH 480 0
DWIDTH 5 0
BBX 5 12 0 -3
BITMAP
18
20
20
20
20
40
40
40
40
80
80
c0
ENDCHAR
STARTCHAR backslash
ENCODING 92
SWIDTH 384 0
DWIDTH 4 0
BBX 2 9 2 0
BITMAP
80
80
80
80
80
80
40
40
40
ENDCHAR
STARTCHAR bracketright
ENCODING 93
SWIDTH 480 0
DWIDTH 5 0
BBX 5 12 -1 -3
BITMAP
18
08
08
08
10
10
10
20
20
20
20
c0
ENDCHAR
STARTCHAR asciicircum
ENCODING 94
SWIDTH 480 0
DWIDTH 5 0
BBX 5 5 1 4
BITMAP
20
30
50
88
88
ENDCHAR
STARTCHAR underscore
ENCODING 95
SWIDTH 576 0
DWIDTH 6 0
BBX 6 1 0 -3
BITMAP
fc
ENDCHAR
STARTCHAR grave
ENCODING 96
SWIDTH 384 0
DWIDTH 4 0
BBX 2 2 3 7
BITMAP
80
40
ENDCHAR
STARTCHAR a
ENCODING 97
SWIDTH 576 0
DWIDTH 6 0
BBX 6 6 0 0
BITMAP
14
2c
44
88
98
ec
ENDCHAR
STARTCHAR b
ENCODING 98
SWIDTH 576 0
DWIDTH 6 0
BBX 5 9 1 0
BITMAP
60
40
40
70
48
88
88
90
e0
ENDCHAR
STARTCHAR c
ENCODING 99
SWIDTH 576 0
DWIDTH 6 0
BBX 5 6 0 0
BITMAP
18
28
c0
80
88
70
ENDCHAR
STARTCHAR d
ENCODING 100
SWIDTH 576 0
DWIDTH 6 0
BBX 7 9 0 0
BITMAP
06
02
04
1c
24
44
88
98
ec
ENDCHAR
STARTCHAR e
ENCODING 101
SWIDTH 576 0
DWIDTH 6 0
BBX 6 6 0 0
BITMAP
18
24
58
e0
8c
70
ENDCHAR
STARTCHAR f
ENCODING 102
SWIDTH 384 0
DWIDTH 4 0
BBX 8 12 -2 -3
BITMAP
02
05
08
1c
08
10
10
10
10
20
20
80
ENDCHAR
STARTCHAR g
ENCODING 103
SWIDTH 576 0
DWIDTH 6 0
BBX 7 9 0 -3
BITMAP
18
26
44
4c
30
70
48
88
70
ENDCHAR
STARTCHAR h
ENCODING 104
SWIDTH 576 0
DWIDTH 6 0
BBX 6 9 1 0
BITMAP
60
20
40
58
68
68
d0
94
98
ENDCHAR
STARTCHAR i
ENCODING 105
SWIDTH 384 0
DWIDTH 4 0
BBX 3 8 1 0
BITMAP
20
00
c0
40
40
c0
a0
c0
ENDCHAR
STARTCHAR j
ENCODING 106
SWIDTH 384 0
DWIDTH 4 0
BBX 6 11 -2 -3
BITMAP
04
00
0c
08
08
08
10
10
10
20
c0
ENDCHAR
STARTCHAR k
ENCODING 107
SWIDTH 576 0
DWIDTH 6 0
BBX 5 9 0 0
BITMAP
60
20
40
58
50
60
e0
a8
90
ENDCHAR
STARTCHAR l
ENCODING 108
SWIDTH 384 0
DWIDTH 4 0
BBX 3 9 1 0
BITMAP
60
20
20
40
40
40
80
a0
c0
ENDCHAR
STARTCHAR m
ENCODING 109
SWIDTH 864 0
DWIDTH 9 0
BBX 9 6 1 0
BITMAP
db00
6d00
6d00
da00
9280
9300
ENDCHAR
STARTCHAR n
ENCODING 110
SWIDTH 576 0
DWIDTH 6 0
BBX 6 6 1 0
BITMAP
d8
68
68
d0
94
98
ENDCHAR
STARTCHAR o
ENCODING 111
SWIDTH 576 0
DWIDTH 6 0
BBX 6 6 0 0
BITMAP
18
64
c4
8c
98
60
ENDCHAR
STARTCHAR p
ENCODING 112
SWIDTH 576 0
DWIDTH 6 0
BBX 7 9 -1 -3
BITMAP
34
1a
22
24
24
78
40
40
e0
ENDCHAR
STARTCHAR q
ENCODING 113
SWIDTH 576 0
DWIDTH 6 0
BBX 6 9 0 -3
BITMAP
14
2c
44
c8
88
b8
50
10
78
ENDCHAR
STARTCHAR r
ENCODING 114
SWIDTH 480 0
DWIDTH 5 0
BBX 4 6 1 0
BITMAP
d0
70
60
c0
80
80
ENDCHAR
STARTCHAR s
ENCODING 115
SWIDTH 480 0
DWIDTH 5 0
BBX 5 6 0 0
BITMAP
38
48
40
30
90
e0
ENDCHAR
STARTCHAR t
ENCODING 116
SWIDTH 384 0
DWIDTH 4 0
BBX 3 7 1 0
BITMAP
40
e0
40
40
40
80
c0
ENDCHAR
STARTCHAR u
ENCODING 117
SWIDTH 576 0
DWIDTH 6 0
BBX 6 6 1 0
BITMAP
c8
48
50
90
b4
d8
ENDCHAR
STARTCHAR v
ENCODING 118
SWIDTH 576 0
DWIDTH 6 0
BBX 5 6 1 0
BITMAP
88
48
48
50
60
40
ENDCHAR
STARTCHAR w
ENCODING 119
SWIDTH 864 0
DWIDTH 9 0
BBX 9 6 1 0
BITMAP
8900
5900
5900
6a00
4c00
4800
ENDCHAR
STARTCHAR x
ENCODING 120
SWIDTH 576 0
DWIDTH 6 0
BBX 6 6 0 0
BITMAP
c8
30
20
20
50
98
ENDCHAR
STARTCHAR y
ENCODING 121
SWIDTH 576 0
DWIDTH 6 0
BBX 8 9 -1 -3
BITMAP
62
11
12
16
14
18
10
20
c0
ENDCHAR
STARTCHAR z
ENCODING 122
SWIDTH 480 0
DWIDTH 5 0
BBX 5 6 0 0
BITMAP
78
50
30
20
48
f0
ENDCHAR
STARTCHAR braceleft
ENCODING 123
SWIDTH 480 0
DWIDTH 5 0
BBX 5 12 1 -3
BITMAP
18
10
20
20
e0
40
40
40
40
80
80
40
ENDCHAR
STARTCHAR bar
ENCODING 124
SWIDTH 384 0
DWIDTH 4 0
BBX 1 12 2 -3
BITMAP
80
80
80
80
80
80
80
80
80
80
80
80
ENDCHAR
STARTCHAR braceright
ENCODING 125
SWIDTH 480 0
DWIDTH 5 0
BBX 5 12 -1 -3
BITMAP
10
08
08
10
10
10
18
10
20
20
20
c0
ENDCHAR
STARTCHAR asciitilde
ENCODING 126
SWIDTH 672 0
DWIDTH 7 0
BBX 7 2 0 3
BITMAP
66
98
ENDCHAR
STARTCHAR exclamdown
ENCODING 161
SWIDTH 768 0
DWIDTH 8 0
BBX 6 8 1 0
BITMAP
38
44
e4
44
84
84
8c
88
ENDCHAR
STARTCHAR cent
ENCODING 162
SWIDTH 768 0
DWIDTH 8 0
BBX 7 8 1 0
BITMAP
72
54
b4
54
14
28
28
10
ENDCHAR
STARTCHAR sterling
ENCODING 163
SWIDTH 864 0
DWIDTH 9 0
BBX 8 8 1 0
BITMAP
51
6a
aa
ea
4a
12
14
08
ENDCHAR
STARTCHAR currency
ENCODING 164
SWIDTH 768 0
DWIDTH 8 0
BBX 6 8 1 0
BITMAP
38
44
a4
d4
64
48
c8
88
ENDCHAR
STARTCHAR yen
ENCODING 165
SWIDTH 768 0
DWIDTH 8 0
BBX 6 8 1 0
BITMAP
48
b4
a4
d4
f4
48
88
88
ENDCHAR
STARTCHAR brokenbar
ENCODING 166
SWIDTH 960 0
DWIDTH 10 0
BBX 9 8 1 0
BITMAP
5880
6900
8900
a900
4900
3a00
5600
3200
ENDCHAR
STARTCHAR section
ENCODING 167
SWIDTH 576 0
DWIDTH 6 0
BBX 5 8 1 0
BITMAP
18
28
38
08
90
50
50
30
ENDCHAR
STARTCHAR diaeresis
ENCODING 168
SWIDTH 672 0
DWIDTH 7 0
BBX 5 8 1 0
BITMAP
60
90
48
a8
68
50
50
20
ENDCHAR
STARTCHAR copyright
ENCODING 169
SWIDTH 864 0
DWIDTH 9 0
BBX 7 8 1 0
BITMAP
78
84
64
a4
68
3c
6a
4c
ENDCHAR
STARTCHAR ordfeminine
ENCODING 170
SWIDTH 768 0
DWIDTH 8 0
BBX 7 8 1 0
BITMAP
62
96
b8
54
14
24
28
70
ENDCHAR
STARTCHAR guillemotleft
ENCODING 171
SWIDTH 864 0
DWIDTH 9 0
BBX 8 8 1 0
BITMAP
49
7a
8c
aa
4a
12
14
3c
ENDCHAR
STARTCHAR notsign
ENCODING 172
SWIDTH 960 0
DWIDTH 10 0
BBX 9 8 1 0
BITMAP
3880
4480
2480
4900
4900
db00
ae00
5200
ENDCHAR
STARTCHAR hyphen
ENCODING 173
SWIDTH 960 0
DWIDTH 10 0
BBX 9 12 1 -4
BITMAP
3880
4480
e500
4500
4900
ea00
b200
4c00
0000
0a00
1400
0800
ENDCHAR
STARTCHAR registered
ENCODING 174
SWIDTH 768 0
DWIDTH 8 0
BBX 8 12 0 -4
BITMAP
0e
11
39
11
11
71
a1
4a
32
5a
66
06
ENDCHAR
STARTCHAR macron
ENCODING 175
SWIDTH 768 0
DWIDTH 8 0
BBX 8 12 0 -4
BITMAP
1e
21
19
31
21
62
a2
ca
56
b4
54
2c
ENDCHAR
STARTCHAR degree
ENCODING 176
SWIDTH 768 0
DWIDTH 8 0
BBX 9 11 -1 -3
BITMAP
0e80
1d00
2200
1a00
3a00
0a00
0a00
0c00
6400
bc00
1c00
ENDCHAR
STARTCHAR plusminus
ENCODING 177
SWIDTH 960 0
DWIDTH 10 0
BBX 8 8 1 0
BITMAP
53
b5
95
d5
d9
32
32
22
ENDCHAR
STARTCHAR twosuperior
ENCODING 178
SWIDTH 960 0
DWIDTH 10 0
BBX 9 8 1 0
BITMAP
5880
a480
a480
d480
a500
6d00
5700
8900
ENDCHAR
STARTCHAR threesuperior
ENCODING 179
SWIDTH 1056 0
DWIDTH 11 0
BBX 9 8 1 0
BITMAP
7880
8480
6500
4900
8b00
da00
bd00
5200
ENDCHAR
STARTCHAR acute
ENCODING 180
SWIDTH 768 0
DWIDTH 8 0
BBX 6 8 1 0
BITMAP
38
44
84
b4
b4
68
c8
88
ENDCHAR
STARTCHAR mu
ENCODING 181
SWIDTH 768 0
DWIDTH 8 0
BBX 6 8 1 0
BITMAP
28
54
84
b4
94
6c
c8
88
ENDCHAR
STARTCHAR paragraph
ENCODING 182
SWIDTH 768 0
DWIDTH 8 0
BBX 6 8 1 0
BITMAP
78
84
64
c4
84
88
a8
48
ENDCHAR
STARTCHAR periodcentered
ENCODING 183
SWIDTH 864 0
DWIDTH 9 0
BBX 7 8 1 0
BITMAP
64
aa
6a
32
32
44
44
44
ENDCHAR
STARTCHAR cedilla
ENCODING 184
SWIDTH 768 0
DWIDTH 8 0
BBX 7 8 1 0
BITMAP
7e
e0
38
68
48
48
58
f0
ENDCHAR
STARTCHAR onesuperior
ENCODING 185
SWIDTH 864 0
DWIDTH 9 0
BBX 8 8 1 0
BITMAP
61
a3
62
22
22
5c
6a
4c
ENDCHAR
STARTCHAR masculine
ENCODING 186
SWIDTH 864 0
DWIDTH 9 0
BBX 7 8 1 0
BITMAP
62
a2
62
22
22
24
44
fc
ENDCHAR
STARTCHAR guillemotright
ENCODING 187
SWIDTH 864 0
DWIDTH 9 0
BBX 9 13 1 0
BITMAP
0080
0100
0100
0100
0100
6200
a200
6200
2200
2200
2200
4400
fc00
ENDCHAR
STARTCHAR onequarter
ENCODING 188
SWIDTH 768 0
DWIDTH 8 0
BBX 7 8 0 0
BITMAP
22
52
62
52
be
ac
c4
84
ENDCHAR
STARTCHAR onehalf
ENCODING 189
SWIDTH 768 0
DWIDTH 8 0
BBX 8 13 0 0
BITMAP
01
01
01
01
03
22
52
62
52
fe
ac
c4
84
ENDCHAR
STARTCHAR threequarters
ENCODING 190
SWIDTH 864 0
DWIDTH 9 0
BBX 8 8 1 0
BITMAP
49
a9
6d
37
36
66
46
46
ENDCHAR
STARTCHAR questiondown
ENCODING 191
SWIDTH 864 0
DWIDTH 9 0
BBX 9 13 1 0
BITMAP
0080
0080
0080
0180
0100
4900
ed00
3500
3700
5600
6600
4600
4600
ENDCHAR
STARTCHAR Agrave
ENCODING 192
SWIDTH 768 0
DWIDTH 8 0
BBX 7 8 1 0
BITMAP
1c
22
72
22
22
e2
a4
c4
ENDCHAR
STARTCHAR Aacute
ENCODING 193
SWIDTH 768 0
DWIDTH 8 0
BBX 8 8 1 0
BITMAP
61
a2
62
22
22
e4
d4
4c
ENDCHAR
STARTCHAR Acircumflex
ENCODING 194
SWIDTH 672 0
DWIDTH 7 0
BBX 7 8 0 0
BITMAP
32
32
64
34
44
cc
48
70
ENDCHAR
STARTCHAR Atilde
ENCODING 195
SWIDTH 672 0
DWIDTH 7 0
BBX 6 8 1 0
BITMAP
64
98
e0
10
30
60
a0
40
ENDCHAR
STARTCHAR Adiaeresis
ENCODING 196
SWIDTH 768 0
DWIDTH 8 0
BBX 6 11 1 -3
BITMAP
78
84
e4
c4
84
84
a8
48
08
08
08
ENDCHAR
STARTCHAR Aring
ENCODING 197
SWIDTH 768 0
DWIDTH 8 0
BBX 6 8 1 0
BITMAP
78
84
34
4c
84
c8
a8
48
ENDCHAR
STARTCHAR AE
ENCODING 198
SWIDTH 768 0
DWIDTH 8 0
BBX 7 11 1 -3
BITMAP
1c
22
72
22
22
e2
a6
c4
04
04
04
ENDCHAR
STARTCHAR Ccedilla
ENCODING 199
SWIDTH 672 0
DWIDTH 7 0
BBX 6 8 1 0
BITMAP
30
c8
04
08
08
18
28
10
ENDCHAR
STARTCHAR Egrave
ENCODING 200
SWIDTH 768 0
DWIDTH 8 0
BBX 7 9 1 0
BITMAP
02
3a
4c
bc
e4
44
48
c8
88
ENDCHAR
STARTCHAR Eacute
ENCODING 201
SWIDTH 864 0
DWIDTH 9 0
BBX 8 8 1 0
BITMAP
41
a2
42
32
44
7c
44
f8
ENDCHAR
STARTCHAR Ecircumflex
ENCODING 202
SWIDTH 864 0
DWIDTH 9 0
BBX 8 9 1 0
BITMAP
01
3a
ce
bc
4c
c4
e4
a8
48
ENDCHAR
STARTCHAR Ediaeresis
ENCODING 203
SWIDTH 864 0
DWIDTH 9 0
BBX 8 8 1 0
BITMAP
63
a5
66
2a
32
64
44
44
ENDCHAR
STARTCHAR Igrave
ENCODING 204
SWIDTH 864 0
DWIDTH 9 0
BBX 9 8 1 0
BITMAP
4380
ad80
cb00
5a00
5a00
6e00
6600
c600
ENDCHAR
STARTCHAR Iacute
ENCODING 205
SWIDTH 768 0
DWIDTH 8 0
BBX 5 8 1 0
BITMAP
70
88
c8
a8
c8
88
98
60
ENDCHAR
STARTCHAR Icircumflex
ENCODING 206
SWIDTH 672 0
DWIDTH 7 0
BBX 7 8 0 0
BITMAP
3a
44
3c
34
64
84
48
30
ENDCHAR
STARTCHAR Idiaeresis
ENCODING 207
SWIDTH 768 0
DWIDTH 8 0
BBX 5 8 1 0
BITMAP
08
58
b8
c8
08
08
08
10
ENDCHAR
STARTCHAR ETH
ENCODING 208
SWIDTH 672 0
DWIDTH 7 0
BBX 7 8 0 0
BITMAP
32
7e
38
00
00
72
de
78
ENDCHAR
STARTCHAR Ntilde
ENCODING 209
SWIDTH 0 0
DWIDTH 0 0
BBX 6 3 -3 9
BITMAP
44
a8
70
ENDCHAR
STARTCHAR Ograve
ENCODING 210
SWIDTH 576 0
DWIDTH 6 0
BBX 3 8 2 0
BITMAP
40
a0
20
20
20
20
20
40
ENDCHAR
STARTCHAR Oacute
ENCODING 211
SWIDTH 576 0
DWIDTH 6 0
BBX 7 13 -2 0
BITMAP
40
a0
40
00
00
0c
12
02
02
02
04
04
04
ENDCHAR
STARTCHAR Ocircumflex
ENCODING 212
SWIDTH 0 0
DWIDTH 0 0
BBX 6 4 -5 9
BITMAP
70
88
f4
08
ENDCHAR
STARTCHAR Otilde
ENCODING 213
SWIDTH 0 0
DWIDTH 0 0
BBX 6 4 -6 9
BITMAP
04
7c
f4
0c
ENDCHAR
STARTCHAR Odiaeresis
ENCODING 214
SWIDTH 0 0
DWIDTH 0 0
BBX 7 5 -6 9
BITMAP
04
6a
9e
f4
0c
ENDCHAR
STARTCHAR multiply
ENCODING 215
SWIDTH 0 0
DWIDTH 0 0
BBX 6 5 -5 9
BITMAP
14
7c
84
f4
0c
ENDCHAR
STARTCHAR Ooblique
ENCODING 216
SWIDTH 0 0
DWIDTH 0 0
BBX 3 3 -5 -4
BITMAP
60
e0
20
ENDCHAR
STARTCHAR Ugrave
ENCODING 217
SWIDTH 0 0
DWIDTH 0 0
BBX 4 3 -6 -4
BITMAP
d0
d0
70
ENDCHAR
STARTCHAR Uacute
ENCODING 218
SWIDTH 0 0
DWIDTH 0 0
BBX 2 2 -4 -3
BITMAP
c0
c0
ENDCHAR
STARTCHAR Ucircumflex
ENCODING 219
SWIDTH 384 0
DWIDTH 4 0
BBX 0 0 0 0
BITMAP
ENDCHAR
STARTCHAR Udiaeresis
ENCODING 220
SWIDTH 384 0
DWIDTH 4 0
BBX 4 2 1 -2
BITMAP
e0
90
ENDCHAR
STARTCHAR ssharp
ENCODING 223
SWIDTH 864 0
DWIDTH 9 0
BBX 8 11 0 -1
BITMAP
06
7e
15
35
35
3e
29
29
6a
fc
08
ENDCHAR
STARTCHAR agrave
ENCODING 224
SWIDTH 288 0
DWIDTH 3 0
BBX 3 8 0 0
BITMAP
20
60
40
40
40
60
a0
c0
ENDCHAR
STARTCHAR aacute
ENCODING 225
SWIDTH 672 0
DWIDTH 7 0
BBX 8 8 0 0
BITMAP
22
66
44
44
44
66
aa
cc
ENDCHAR
STARTCHAR acircumflex
ENCODING 226
SWIDTH 672 0
DWIDTH 7 0
BBX 5 13 2 0
BITMAP
60
98
60
30
20
20
20
20
40
40
60
50
20
ENDCHAR
STARTCHAR atilde
ENCODING 227
SWIDTH 576 0
DWIDTH 6 0
BBX 4 13 2 0
BITMAP
60
d0
d0
10
20
20
20
20
40
40
60
50
20
ENDCHAR
STARTCHAR adiaeresis
ENCODING 228
SWIDTH 672 0
DWIDTH 7 0
BBX 5 14 2 0
BITMAP
90
a8
a8
a8
50
10
10
10
10
20
20
30
50
20
ENDCHAR
STARTCHAR aring
ENCODING 229
SWIDTH 576 0
DWIDTH 6 0
BBX 3 11 2 -3
BITMAP
e0
a0
20
20
20
20
20
40
40
40
40
ENDCHAR
STARTCHAR ae
ENCODING 230
SWIDTH 768 0
DWIDTH 8 0
BBX 6 11 1 -3
BITMAP
28
54
84
a4
44
08
08
08
10
10
10
ENDCHAR
STARTCHAR ccedilla
ENCODING 231
SWIDTH 0 0
DWIDTH 0 0
BBX 6 6 -5 9
BITMAP
04
08
70
98
c8
b0
ENDCHAR
STARTCHAR egrave
ENCODING 232
SWIDTH 0 0
DWIDTH 0 0
BBX 1 2 0 14
BITMAP
80
80
ENDCHAR
STARTCHAR eacute
ENCODING 233
SWIDTH 0 0
DWIDTH 0 0
BBX 5 4 -1 14
BITMAP
48
a8
70
e0
ENDCHAR
STARTCHAR ecircumflex
ENCODING 234
SWIDTH 0 0
DWIDTH 0 0
BBX 5 3 -2 15
BITMAP
48
a8
f0
ENDCHAR
STARTCHAR ediaeresis
ENCODING 235
SWIDTH 0 0
DWIDTH 0 0
BBX 3 4 -1 14
BITMAP
40
40
e0
40
ENDCHAR
STARTCHAR igrave
ENCODING 236
SWIDTH 0 0
DWIDTH 0 0
BBX 4 4 0 13
BITMAP
10
60
a0
40
ENDCHAR
STARTCHAR iacute
ENCODING 237
SWIDTH 0 0
DWIDTH 0 0
BBX 3 3 -3 9
BITMAP
40
a0
40
ENDCHAR
STARTCHAR icircumflex
ENCODING 238
SWIDTH 0 0
DWIDTH 0 0
BBX 3 5 -2 9
BITMAP
20
40
40
80
c0
ENDCHAR
STARTCHAR idiaeresis
ENCODING 239
SWIDTH 864 0
DWIDTH 9 0
BBX 7 7 1 0
BITMAP
3c
46
92
ba
92
c4
78
ENDCHAR
STARTCHAR eth
ENCODING 240
SWIDTH 768 0
DWIDTH 8 0
BBX 7 6 0 0
BITMAP
3c
46
82
82
c4
78
ENDCHAR
STARTCHAR ntilde
ENCODING 241
SWIDTH 768 0
DWIDTH 8 0
BBX 7 6 0 0
BITMAP
3c
46
92
b2
94
68
ENDCHAR
STARTCHAR ograve
ENCODING 242
SWIDTH 1056 0
DWIDTH 11 0
BBX 9 9 1 0
BITMAP
c000
4000
4000
5d80
5280
aa80
9a80
8500
ff00
ENDCHAR
STARTCHAR oacute
ENCODING 243
SWIDTH 960 0
DWIDTH 10 0
BBX 9 6 0 0
BITMAP
3b00
6480
c480
b480
b500
6a00
ENDCHAR
STARTCHAR ocircumflex
ENCODING 244
SWIDTH 960 0
DWIDTH 10 0
BBX 8 9 1 0
BITMAP
01
01
02
0c
30
cc
9c
88
7e
ENDCHAR
STARTCHAR otilde
ENCODING 245
SWIDTH 960 0
DWIDTH 10 0
BBX 10 9 0 0
BITMAP
0040
0640
0ac0
0f00
1800
6300
8700
c200
7f00
ENDCHAR
STARTCHAR odiaeresis
ENCODING 246
SWIDTH 768 0
DWIDTH 8 0
BBX 5 9 2 0
BITMAP
80
40
40
70
88
48
c8
d0
60
ENDCHAR
STARTCHAR division
ENCODING 247
SWIDTH 1056 0
DWIDTH 11 0
BBX 10 9 0 0
BITMAP
0180
0080
0040
1b40
6540
c540
8180
db00
3200
ENDCHAR
STARTCHAR oslash
ENCODING 248
SWIDTH 960 0
DWIDTH 10 0
BBX 10 9 0 0
BITMAP
0040
0040
0080
0080
7f00
c000
8100
bb00
4600
ENDCHAR
STARTCHAR ugrave
ENCODING 249
SWIDTH 768 0
DWIDTH 8 0
BBX 8 9 0 0
BITMAP
01
1b
26
60
3e
60
8c
c4
78
ENDCHAR
STARTCHAR uacute
ENCODING 250
SWIDTH 864 0
DWIDTH 9 0
BBX 8 8 1 0
BITMAP
0d
6d
95
e5
0a
0a
14
14
ENDCHAR
STARTCHAR ucircumflex
ENCODING 251
SWIDTH 1536 0
DWIDTH 16 0
BBX 15 7 1 0
BITMAP
3800
4400
4000
82a2
87d4
8558
7800
ENDCHAR
STARTCHAR udiaeresis
ENCODING 252
SWIDTH 0 0
DWIDTH 0 0
BBX 3 3 -5 -8
BITMAP
40
e0
20
ENDCHAR
STARTCHAR yacute
ENCODING 253
SWIDTH 0 0
DWIDTH 0 0
BBX 4 4 -7 -8
BITMAP
d0
b0
d0
70
ENDCHAR
STARTCHAR thorn
ENCODING 254
SWIDTH 0 0
DWIDTH 0 0
BBX 2 2 -4 -7
BITMAP
c0
c0
ENDCHAR
STARTCHAR C000400
ENCODING 256
SWIDTH 288 0
DWIDTH 3 0
BBX 0 0 0 0
BITMAP
ENDCHAR
STARTCHAR C000401
ENCODING 257
SWIDTH 288 0
DWIDTH 3 0
BBX 0 0 0 0
BITMAP
ENDCHAR
STARTCHAR C000430
ENCODING 280
SWIDTH 288 0
DWIDTH 3 0
BBX 0 0 0 0
BITMAP
ENDCHAR
STARTCHAR C001103
ENCODING 579
SWIDTH 576 0
DWIDTH 6 0
BBX 6 1 0 3
BITMAP
fc
ENDCHAR
STARTCHAR C001104
ENCODING 580
SWIDTH 1152 0
DWIDTH 12 0
BBX 0 0 0 0
BITMAP
ENDCHAR
STARTCHAR C001107
ENCODING 583
SWIDTH 384 0
DWIDTH 4 0
BBX 2 3 3 6
BITMAP
40
80
80
ENDCHAR
STARTCHAR C001110
ENCODING 584
SWIDTH 384 0
DWIDTH 4 0
BBX 1 3 3 6
BITMAP
80
80
80
ENDCHAR
STARTCHAR C001113
ENCODING 587
SWIDTH 672 0
DWIDTH 7 0
BBX 5 3 3 6
BITMAP
48
90
90
ENDCHAR
STARTCHAR C001114
ENCODING 588
SWIDTH 672 0
DWIDTH 7 0
BBX 4 3 3 6
BITMAP
90
90
b0
ENDCHAR
STARTCHAR C001115
ENCODING 589
SWIDTH 672 0
DWIDTH 7 0
BBX 4 3 1 -2
BITMAP
90
90
b0
ENDCHAR
STARTCHAR C001121
ENCODING 593
SWIDTH 480 0
DWIDTH 5 0
BBX 3 3 1 3
BITMAP
e0
e0
e0
ENDCHAR
STARTCHAR C001122
ENCODING 594
SWIDTH 1152 0
DWIDTH 12 0
BBX 8 1 2 0
BITMAP
91
ENDCHAR
ENDFONT
